<svg width="100" height="96" viewBox="0 0 100 96" fill="none" xmlns="http://www.w3.org/2000/svg">
  <path fill-rule="evenodd" clip-rule="evenodd" d="
    M 50 6
    C 46 6 40 10 28 32
    L 4 78
    C 1 85 1 93 9.5 96
    C 14 97.5 22 97 27 91
    L 37 68
    L 63 68
    L 73 91
    C 78 97 86 97.5 90.5 96
    C 99 93 99 85 96 78
    L 72 32
    C 60 10 54 6 50 6
    Z
    M 50 23
    C 48 23 46 25 43 32
    L 33 60
    C 32 63 33 66 36 66
    L 64 66
    C 67 66 68 63 67 60
    L 57 32
    C 54 25 52 23 50 23
    Z
  " fill="currentColor"/>
</svg>
